<mxfile host="app.diagrams.net" agent="Mozilla/5.0 (Windows NT 10.0; Win64; x64) AppleWebKit/537.36 (KHTML, like Gecko) Chrome/126.0.0.0 Safari/537.36" version="24.7.5">
  <diagram name="Page-1" id="LCeNuHTux1eTcUJQSB2Z">
    <mxGraphModel dx="1621" dy="458" grid="1" gridSize="10" guides="1" tooltips="1" connect="1" arrows="1" fold="1" page="1" pageScale="1" pageWidth="827" pageHeight="1169" math="0" shadow="0">
      <root>
        <mxCell id="0" />
        <mxCell id="1" parent="0" />
        <mxCell id="A1dtZ5K79uIgCxoB6apC-5" style="edgeStyle=orthogonalEdgeStyle;rounded=0;orthogonalLoop=1;jettySize=auto;html=1;exitX=0.5;exitY=1;exitDx=0;exitDy=0;entryX=0.5;entryY=0;entryDx=0;entryDy=0;" parent="1" source="A1dtZ5K79uIgCxoB6apC-13" target="A1dtZ5K79uIgCxoB6apC-4" edge="1">
          <mxGeometry relative="1" as="geometry">
            <mxPoint x="400" y="350" as="sourcePoint" />
            <mxPoint x="400" y="350" as="targetPoint" />
          </mxGeometry>
        </mxCell>
        <mxCell id="A1dtZ5K79uIgCxoB6apC-126" value="clean" style="edgeLabel;html=1;align=center;verticalAlign=middle;resizable=0;points=[];" parent="A1dtZ5K79uIgCxoB6apC-5" vertex="1" connectable="0">
          <mxGeometry x="-0.0926" y="-4" relative="1" as="geometry">
            <mxPoint x="4" y="3" as="offset" />
          </mxGeometry>
        </mxCell>
        <mxCell id="A1dtZ5K79uIgCxoB6apC-36" style="edgeStyle=orthogonalEdgeStyle;rounded=0;orthogonalLoop=1;jettySize=auto;html=1;exitX=0;exitY=0.25;exitDx=0;exitDy=0;entryX=1;entryY=0.25;entryDx=0;entryDy=0;" parent="1" source="A1dtZ5K79uIgCxoB6apC-4" target="A1dtZ5K79uIgCxoB6apC-30" edge="1">
          <mxGeometry relative="1" as="geometry" />
        </mxCell>
        <mxCell id="A1dtZ5K79uIgCxoB6apC-115" style="edgeStyle=orthogonalEdgeStyle;rounded=0;orthogonalLoop=1;jettySize=auto;html=1;exitX=0.5;exitY=1;exitDx=0;exitDy=0;entryX=0.5;entryY=0;entryDx=0;entryDy=0;" parent="1" source="A1dtZ5K79uIgCxoB6apC-4" target="A1dtZ5K79uIgCxoB6apC-15" edge="1">
          <mxGeometry relative="1" as="geometry">
            <mxPoint x="400" y="640" as="targetPoint" />
            <Array as="points">
              <mxPoint x="400" y="590" />
              <mxPoint x="400" y="590" />
            </Array>
          </mxGeometry>
        </mxCell>
        <mxCell id="A1dtZ5K79uIgCxoB6apC-130" value="clean" style="edgeLabel;html=1;align=center;verticalAlign=middle;resizable=0;points=[];" parent="A1dtZ5K79uIgCxoB6apC-115" vertex="1" connectable="0">
          <mxGeometry x="0.2162" y="-2" relative="1" as="geometry">
            <mxPoint x="2" y="-19" as="offset" />
          </mxGeometry>
        </mxCell>
        <mxCell id="A1dtZ5K79uIgCxoB6apC-4" value="Ran over dogshit and spread it around the house" style="rounded=0;whiteSpace=wrap;html=1;" parent="1" vertex="1">
          <mxGeometry x="340" y="470" width="120" height="60" as="geometry" />
        </mxCell>
        <mxCell id="A1dtZ5K79uIgCxoB6apC-12" style="edgeStyle=orthogonalEdgeStyle;rounded=0;orthogonalLoop=1;jettySize=auto;html=1;exitX=0.5;exitY=1;exitDx=0;exitDy=0;entryX=0.5;entryY=0;entryDx=0;entryDy=0;" parent="1" source="A1dtZ5K79uIgCxoB6apC-11" target="A1dtZ5K79uIgCxoB6apC-17" edge="1">
          <mxGeometry relative="1" as="geometry">
            <mxPoint x="550" y="260" as="targetPoint" />
          </mxGeometry>
        </mxCell>
        <mxCell id="A1dtZ5K79uIgCxoB6apC-11" value="Maid" style="rounded=0;whiteSpace=wrap;html=1;" parent="1" vertex="1">
          <mxGeometry x="490" y="130" width="120" height="60" as="geometry" />
        </mxCell>
        <mxCell id="A1dtZ5K79uIgCxoB6apC-152" style="edgeStyle=orthogonalEdgeStyle;rounded=0;orthogonalLoop=1;jettySize=auto;html=1;exitX=0;exitY=0.5;exitDx=0;exitDy=0;entryX=1;entryY=0.5;entryDx=0;entryDy=0;" parent="1" source="A1dtZ5K79uIgCxoB6apC-13" target="A1dtZ5K79uIgCxoB6apC-47" edge="1">
          <mxGeometry relative="1" as="geometry" />
        </mxCell>
        <mxCell id="A1dtZ5K79uIgCxoB6apC-13" value="ate my kids homework" style="rounded=0;whiteSpace=wrap;html=1;" parent="1" vertex="1">
          <mxGeometry x="340" y="230" width="120" height="60" as="geometry" />
        </mxCell>
        <mxCell id="A1dtZ5K79uIgCxoB6apC-34" style="edgeStyle=orthogonalEdgeStyle;rounded=0;orthogonalLoop=1;jettySize=auto;html=1;exitX=0;exitY=0.25;exitDx=0;exitDy=0;entryX=1;entryY=0.25;entryDx=0;entryDy=0;" parent="1" source="A1dtZ5K79uIgCxoB6apC-15" target="A1dtZ5K79uIgCxoB6apC-32" edge="1">
          <mxGeometry relative="1" as="geometry" />
        </mxCell>
        <mxCell id="A1dtZ5K79uIgCxoB6apC-137" style="edgeStyle=orthogonalEdgeStyle;rounded=0;orthogonalLoop=1;jettySize=auto;html=1;exitX=0.5;exitY=1;exitDx=0;exitDy=0;entryX=0.5;entryY=0;entryDx=0;entryDy=0;" parent="1" source="A1dtZ5K79uIgCxoB6apC-15" target="A1dtZ5K79uIgCxoB6apC-124" edge="1">
          <mxGeometry relative="1" as="geometry" />
        </mxCell>
        <mxCell id="A1dtZ5K79uIgCxoB6apC-15" value="Stabbed Aton (DO NOT TURN ON)" style="rounded=0;whiteSpace=wrap;html=1;" parent="1" vertex="1">
          <mxGeometry x="340" y="730" width="120" height="60" as="geometry" />
        </mxCell>
        <mxCell id="A1dtZ5K79uIgCxoB6apC-56" style="edgeStyle=orthogonalEdgeStyle;rounded=0;orthogonalLoop=1;jettySize=auto;html=1;exitX=0.5;exitY=1;exitDx=0;exitDy=0;" parent="1" source="A1dtZ5K79uIgCxoB6apC-17" target="A1dtZ5K79uIgCxoB6apC-18" edge="1">
          <mxGeometry relative="1" as="geometry" />
        </mxCell>
        <mxCell id="A1dtZ5K79uIgCxoB6apC-134" value="clean" style="edgeLabel;html=1;align=center;verticalAlign=middle;resizable=0;points=[];" parent="A1dtZ5K79uIgCxoB6apC-56" vertex="1" connectable="0">
          <mxGeometry x="-0.1864" y="-1" relative="1" as="geometry">
            <mxPoint as="offset" />
          </mxGeometry>
        </mxCell>
        <mxCell id="A1dtZ5K79uIgCxoB6apC-17" value="Painted" style="rounded=0;whiteSpace=wrap;html=1;" parent="1" vertex="1">
          <mxGeometry x="490" y="230" width="120" height="60" as="geometry" />
        </mxCell>
        <mxCell id="A1dtZ5K79uIgCxoB6apC-57" style="edgeStyle=orthogonalEdgeStyle;rounded=0;orthogonalLoop=1;jettySize=auto;html=1;exitX=0.5;exitY=1;exitDx=0;exitDy=0;entryX=0.5;entryY=0;entryDx=0;entryDy=0;" parent="1" source="A1dtZ5K79uIgCxoB6apC-18" target="A1dtZ5K79uIgCxoB6apC-19" edge="1">
          <mxGeometry relative="1" as="geometry" />
        </mxCell>
        <mxCell id="A1dtZ5K79uIgCxoB6apC-135" value="replace part" style="edgeLabel;html=1;align=center;verticalAlign=middle;resizable=0;points=[];" parent="A1dtZ5K79uIgCxoB6apC-57" vertex="1" connectable="0">
          <mxGeometry x="-0.3227" y="1" relative="1" as="geometry">
            <mxPoint as="offset" />
          </mxGeometry>
        </mxCell>
        <mxCell id="A1dtZ5K79uIgCxoB6apC-18" value="Hurts itself in vegetables chopping" style="rounded=0;whiteSpace=wrap;html=1;" parent="1" vertex="1">
          <mxGeometry x="490" y="330" width="120" height="60" as="geometry" />
        </mxCell>
        <mxCell id="A1dtZ5K79uIgCxoB6apC-121" style="edgeStyle=orthogonalEdgeStyle;rounded=0;orthogonalLoop=1;jettySize=auto;html=1;exitX=0.5;exitY=1;exitDx=0;exitDy=0;entryX=0.5;entryY=0;entryDx=0;entryDy=0;" parent="1" source="A1dtZ5K79uIgCxoB6apC-19" target="A1dtZ5K79uIgCxoB6apC-21" edge="1">
          <mxGeometry relative="1" as="geometry" />
        </mxCell>
        <mxCell id="A1dtZ5K79uIgCxoB6apC-19" value="Screams and wants to be destroyed, seeks destruction" style="rounded=0;whiteSpace=wrap;html=1;" parent="1" vertex="1">
          <mxGeometry x="490" y="430" width="120" height="60" as="geometry" />
        </mxCell>
        <mxCell id="A1dtZ5K79uIgCxoB6apC-21" value="restart and send back, or discard" style="rhombus;whiteSpace=wrap;html=1;" parent="1" vertex="1">
          <mxGeometry x="510" y="530" width="80" height="80" as="geometry" />
        </mxCell>
        <mxCell id="A1dtZ5K79uIgCxoB6apC-49" style="edgeStyle=orthogonalEdgeStyle;rounded=0;orthogonalLoop=1;jettySize=auto;html=1;exitX=0.5;exitY=1;exitDx=0;exitDy=0;entryX=0.5;entryY=0;entryDx=0;entryDy=0;" parent="1" source="A1dtZ5K79uIgCxoB6apC-26" target="A1dtZ5K79uIgCxoB6apC-47" edge="1">
          <mxGeometry relative="1" as="geometry" />
        </mxCell>
        <mxCell id="A1dtZ5K79uIgCxoB6apC-26" value="Aton" style="rounded=0;whiteSpace=wrap;html=1;" parent="1" vertex="1">
          <mxGeometry x="120" y="130" width="120" height="60" as="geometry" />
        </mxCell>
        <mxCell id="A1dtZ5K79uIgCxoB6apC-33" style="edgeStyle=orthogonalEdgeStyle;rounded=0;orthogonalLoop=1;jettySize=auto;html=1;exitX=0.5;exitY=1;exitDx=0;exitDy=0;entryX=0.5;entryY=0;entryDx=0;entryDy=0;" parent="1" source="A1dtZ5K79uIgCxoB6apC-30" target="A1dtZ5K79uIgCxoB6apC-32" edge="1">
          <mxGeometry relative="1" as="geometry" />
        </mxCell>
        <mxCell id="A1dtZ5K79uIgCxoB6apC-114" value="restart" style="edgeLabel;html=1;align=center;verticalAlign=middle;resizable=0;points=[];" parent="A1dtZ5K79uIgCxoB6apC-33" vertex="1" connectable="0">
          <mxGeometry x="0.0273" y="1" relative="1" as="geometry">
            <mxPoint as="offset" />
          </mxGeometry>
        </mxCell>
        <mxCell id="A1dtZ5K79uIgCxoB6apC-37" style="edgeStyle=orthogonalEdgeStyle;rounded=0;orthogonalLoop=1;jettySize=auto;html=1;exitX=1;exitY=0.75;exitDx=0;exitDy=0;entryX=0;entryY=0.75;entryDx=0;entryDy=0;" parent="1" source="A1dtZ5K79uIgCxoB6apC-30" target="A1dtZ5K79uIgCxoB6apC-4" edge="1">
          <mxGeometry relative="1" as="geometry" />
        </mxCell>
        <mxCell id="A1dtZ5K79uIgCxoB6apC-30" value="put my dog on the roof" style="rounded=0;whiteSpace=wrap;html=1;" parent="1" vertex="1">
          <mxGeometry x="120" y="470" width="120" height="60" as="geometry" />
        </mxCell>
        <mxCell id="A1dtZ5K79uIgCxoB6apC-35" style="edgeStyle=orthogonalEdgeStyle;rounded=0;orthogonalLoop=1;jettySize=auto;html=1;exitX=1;exitY=0.75;exitDx=0;exitDy=0;entryX=0;entryY=0.75;entryDx=0;entryDy=0;" parent="1" source="A1dtZ5K79uIgCxoB6apC-32" target="A1dtZ5K79uIgCxoB6apC-15" edge="1">
          <mxGeometry relative="1" as="geometry" />
        </mxCell>
        <mxCell id="A1dtZ5K79uIgCxoB6apC-141" style="edgeStyle=orthogonalEdgeStyle;rounded=0;orthogonalLoop=1;jettySize=auto;html=1;exitX=0.5;exitY=1;exitDx=0;exitDy=0;entryX=0.5;entryY=0;entryDx=0;entryDy=0;" parent="1" source="A1dtZ5K79uIgCxoB6apC-32" target="A1dtZ5K79uIgCxoB6apC-140" edge="1">
          <mxGeometry relative="1" as="geometry" />
        </mxCell>
        <mxCell id="A1dtZ5K79uIgCxoB6apC-32" value="&lt;div&gt;put me on the roof, then got&amp;nbsp;&lt;span style=&quot;background-color: initial;&quot;&gt;stabbed&lt;/span&gt;&lt;/div&gt;" style="rounded=0;whiteSpace=wrap;html=1;" parent="1" vertex="1">
          <mxGeometry x="120" y="730" width="120" height="60" as="geometry" />
        </mxCell>
        <mxCell id="A1dtZ5K79uIgCxoB6apC-43" style="edgeStyle=orthogonalEdgeStyle;rounded=0;orthogonalLoop=1;jettySize=auto;html=1;exitX=0.5;exitY=1;exitDx=0;exitDy=0;" parent="1" source="A1dtZ5K79uIgCxoB6apC-38" target="A1dtZ5K79uIgCxoB6apC-42" edge="1">
          <mxGeometry relative="1" as="geometry" />
        </mxCell>
        <mxCell id="A1dtZ5K79uIgCxoB6apC-38" value="Secretary" style="rounded=0;whiteSpace=wrap;html=1;" parent="1" vertex="1">
          <mxGeometry x="-80" y="130" width="120" height="60" as="geometry" />
        </mxCell>
        <mxCell id="A1dtZ5K79uIgCxoB6apC-45" style="edgeStyle=orthogonalEdgeStyle;rounded=0;orthogonalLoop=1;jettySize=auto;html=1;exitX=0.5;exitY=1;exitDx=0;exitDy=0;entryX=0.5;entryY=0;entryDx=0;entryDy=0;" parent="1" source="A1dtZ5K79uIgCxoB6apC-72" target="A1dtZ5K79uIgCxoB6apC-40" edge="1">
          <mxGeometry relative="1" as="geometry">
            <mxPoint x="-20" y="390" as="sourcePoint" />
          </mxGeometry>
        </mxCell>
        <mxCell id="A1dtZ5K79uIgCxoB6apC-111" value="restart" style="edgeLabel;html=1;align=center;verticalAlign=middle;resizable=0;points=[];" parent="A1dtZ5K79uIgCxoB6apC-45" vertex="1" connectable="0">
          <mxGeometry x="-0.1409" y="-1" relative="1" as="geometry">
            <mxPoint as="offset" />
          </mxGeometry>
        </mxCell>
        <mxCell id="A1dtZ5K79uIgCxoB6apC-46" style="edgeStyle=orthogonalEdgeStyle;rounded=0;orthogonalLoop=1;jettySize=auto;html=1;exitX=0.5;exitY=1;exitDx=0;exitDy=0;entryX=0.5;entryY=0;entryDx=0;entryDy=0;" parent="1" source="A1dtZ5K79uIgCxoB6apC-40" target="A1dtZ5K79uIgCxoB6apC-71" edge="1">
          <mxGeometry relative="1" as="geometry">
            <mxPoint x="-20" y="540" as="targetPoint" />
          </mxGeometry>
        </mxCell>
        <mxCell id="A1dtZ5K79uIgCxoB6apC-112" value="restart" style="edgeLabel;html=1;align=center;verticalAlign=middle;resizable=0;points=[];" parent="A1dtZ5K79uIgCxoB6apC-46" vertex="1" connectable="0">
          <mxGeometry x="-0.1855" y="1" relative="1" as="geometry">
            <mxPoint as="offset" />
          </mxGeometry>
        </mxCell>
        <mxCell id="A1dtZ5K79uIgCxoB6apC-40" value="unautherized phonecalls" style="rounded=0;whiteSpace=wrap;html=1;" parent="1" vertex="1">
          <mxGeometry x="-80" y="430" width="120" height="60" as="geometry" />
        </mxCell>
        <mxCell id="A1dtZ5K79uIgCxoB6apC-70" style="edgeStyle=orthogonalEdgeStyle;rounded=0;orthogonalLoop=1;jettySize=auto;html=1;exitX=0.5;exitY=1;exitDx=0;exitDy=0;entryX=0.5;entryY=0;entryDx=0;entryDy=0;" parent="1" source="A1dtZ5K79uIgCxoB6apC-71" target="A1dtZ5K79uIgCxoB6apC-69" edge="1">
          <mxGeometry relative="1" as="geometry">
            <mxPoint x="-20" y="600" as="sourcePoint" />
          </mxGeometry>
        </mxCell>
        <mxCell id="A1dtZ5K79uIgCxoB6apC-44" style="edgeStyle=orthogonalEdgeStyle;rounded=0;orthogonalLoop=1;jettySize=auto;html=1;exitX=0.5;exitY=1;exitDx=0;exitDy=0;entryX=0.5;entryY=0;entryDx=0;entryDy=0;" parent="1" source="A1dtZ5K79uIgCxoB6apC-42" target="A1dtZ5K79uIgCxoB6apC-72" edge="1">
          <mxGeometry relative="1" as="geometry">
            <mxPoint x="-20" y="330" as="targetPoint" />
          </mxGeometry>
        </mxCell>
        <mxCell id="A1dtZ5K79uIgCxoB6apC-110" value="restart" style="edgeLabel;html=1;align=center;verticalAlign=middle;resizable=0;points=[];" parent="A1dtZ5K79uIgCxoB6apC-44" vertex="1" connectable="0">
          <mxGeometry x="-0.1182" y="1" relative="1" as="geometry">
            <mxPoint as="offset" />
          </mxGeometry>
        </mxCell>
        <mxCell id="A1dtZ5K79uIgCxoB6apC-42" value="keeps folowing me around... it feels like its staring at me" style="rounded=0;whiteSpace=wrap;html=1;" parent="1" vertex="1">
          <mxGeometry x="-80" y="230" width="120" height="60" as="geometry" />
        </mxCell>
        <mxCell id="A1dtZ5K79uIgCxoB6apC-50" style="edgeStyle=orthogonalEdgeStyle;rounded=0;orthogonalLoop=1;jettySize=auto;html=1;exitX=0.5;exitY=1;exitDx=0;exitDy=0;entryX=0.5;entryY=0;entryDx=0;entryDy=0;" parent="1" source="A1dtZ5K79uIgCxoB6apC-47" target="A1dtZ5K79uIgCxoB6apC-30" edge="1">
          <mxGeometry relative="1" as="geometry" />
        </mxCell>
        <mxCell id="A1dtZ5K79uIgCxoB6apC-113" value="restart" style="edgeLabel;html=1;align=center;verticalAlign=middle;resizable=0;points=[];" parent="A1dtZ5K79uIgCxoB6apC-50" vertex="1" connectable="0">
          <mxGeometry x="-0.2318" y="-1" relative="1" as="geometry">
            <mxPoint as="offset" />
          </mxGeometry>
        </mxCell>
        <mxCell id="A1dtZ5K79uIgCxoB6apC-47" value="put my kids on the roof" style="rounded=0;whiteSpace=wrap;html=1;" parent="1" vertex="1">
          <mxGeometry x="120" y="230" width="120" height="60" as="geometry" />
        </mxCell>
        <mxCell id="A1dtZ5K79uIgCxoB6apC-52" style="edgeStyle=orthogonalEdgeStyle;rounded=0;orthogonalLoop=1;jettySize=auto;html=1;exitX=0.5;exitY=1;exitDx=0;exitDy=0;" parent="1" source="A1dtZ5K79uIgCxoB6apC-51" target="A1dtZ5K79uIgCxoB6apC-150" edge="1">
          <mxGeometry relative="1" as="geometry">
            <mxPoint x="400" y="130" as="targetPoint" />
          </mxGeometry>
        </mxCell>
        <mxCell id="A1dtZ5K79uIgCxoB6apC-53" style="edgeStyle=orthogonalEdgeStyle;rounded=0;orthogonalLoop=1;jettySize=auto;html=1;exitX=0.5;exitY=1;exitDx=0;exitDy=0;entryX=0.5;entryY=0;entryDx=0;entryDy=0;" parent="1" source="A1dtZ5K79uIgCxoB6apC-51" target="A1dtZ5K79uIgCxoB6apC-26" edge="1">
          <mxGeometry relative="1" as="geometry" />
        </mxCell>
        <mxCell id="A1dtZ5K79uIgCxoB6apC-54" style="edgeStyle=orthogonalEdgeStyle;rounded=0;orthogonalLoop=1;jettySize=auto;html=1;exitX=0.5;exitY=1;exitDx=0;exitDy=0;" parent="1" source="A1dtZ5K79uIgCxoB6apC-51" target="A1dtZ5K79uIgCxoB6apC-11" edge="1">
          <mxGeometry relative="1" as="geometry" />
        </mxCell>
        <mxCell id="A1dtZ5K79uIgCxoB6apC-55" style="edgeStyle=orthogonalEdgeStyle;rounded=0;orthogonalLoop=1;jettySize=auto;html=1;exitX=0.5;exitY=1;exitDx=0;exitDy=0;" parent="1" source="A1dtZ5K79uIgCxoB6apC-51" target="A1dtZ5K79uIgCxoB6apC-38" edge="1">
          <mxGeometry relative="1" as="geometry" />
        </mxCell>
        <mxCell id="A1dtZ5K79uIgCxoB6apC-51" value="Rom bach" style="rounded=0;whiteSpace=wrap;html=1;" parent="1" vertex="1">
          <mxGeometry x="240" y="20" width="120" height="60" as="geometry" />
        </mxCell>
        <mxCell id="A1dtZ5K79uIgCxoB6apC-62" style="edgeStyle=orthogonalEdgeStyle;rounded=0;orthogonalLoop=1;jettySize=auto;html=1;exitX=0.5;exitY=1;exitDx=0;exitDy=0;entryX=0.5;entryY=0;entryDx=0;entryDy=0;" parent="1" source="A1dtZ5K79uIgCxoB6apC-58" target="A1dtZ5K79uIgCxoB6apC-59" edge="1">
          <mxGeometry relative="1" as="geometry" />
        </mxCell>
        <mxCell id="A1dtZ5K79uIgCxoB6apC-58" value="Tanner" style="rounded=0;whiteSpace=wrap;html=1;" parent="1" vertex="1">
          <mxGeometry x="-270" y="130" width="120" height="60" as="geometry" />
        </mxCell>
        <mxCell id="A1dtZ5K79uIgCxoB6apC-63" style="edgeStyle=orthogonalEdgeStyle;rounded=0;orthogonalLoop=1;jettySize=auto;html=1;exitX=0.5;exitY=1;exitDx=0;exitDy=0;entryX=0.5;entryY=0;entryDx=0;entryDy=0;" parent="1" source="A1dtZ5K79uIgCxoB6apC-59" target="A1dtZ5K79uIgCxoB6apC-60" edge="1">
          <mxGeometry relative="1" as="geometry">
            <mxPoint x="-210" y="320" as="targetPoint" />
          </mxGeometry>
        </mxCell>
        <mxCell id="A1dtZ5K79uIgCxoB6apC-103" value="wash" style="edgeLabel;html=1;align=center;verticalAlign=middle;resizable=0;points=[];" parent="A1dtZ5K79uIgCxoB6apC-63" vertex="1" connectable="0">
          <mxGeometry x="-0.1864" relative="1" as="geometry">
            <mxPoint as="offset" />
          </mxGeometry>
        </mxCell>
        <mxCell id="A1dtZ5K79uIgCxoB6apC-59" value="coffee" style="rounded=0;whiteSpace=wrap;html=1;" parent="1" vertex="1">
          <mxGeometry x="-270" y="230" width="120" height="60" as="geometry" />
        </mxCell>
        <mxCell id="A1dtZ5K79uIgCxoB6apC-64" style="edgeStyle=orthogonalEdgeStyle;rounded=0;orthogonalLoop=1;jettySize=auto;html=1;exitX=0.5;exitY=1;exitDx=0;exitDy=0;entryX=0.5;entryY=0;entryDx=0;entryDy=0;" parent="1" source="A1dtZ5K79uIgCxoB6apC-60" target="A1dtZ5K79uIgCxoB6apC-61" edge="1">
          <mxGeometry relative="1" as="geometry">
            <mxPoint x="-210" y="520" as="targetPoint" />
          </mxGeometry>
        </mxCell>
        <mxCell id="A1dtZ5K79uIgCxoB6apC-104" value="wash and fix part" style="edgeLabel;html=1;align=center;verticalAlign=middle;resizable=0;points=[];" parent="A1dtZ5K79uIgCxoB6apC-64" vertex="1" connectable="0">
          <mxGeometry x="-0.0955" relative="1" as="geometry">
            <mxPoint as="offset" />
          </mxGeometry>
        </mxCell>
        <mxCell id="A1dtZ5K79uIgCxoB6apC-60" value="fireplace" style="rounded=0;whiteSpace=wrap;html=1;" parent="1" vertex="1">
          <mxGeometry x="-270" y="330" width="120" height="60" as="geometry" />
        </mxCell>
        <mxCell id="A1dtZ5K79uIgCxoB6apC-66" style="edgeStyle=orthogonalEdgeStyle;rounded=0;orthogonalLoop=1;jettySize=auto;html=1;exitX=0.5;exitY=1;exitDx=0;exitDy=0;" parent="1" source="A1dtZ5K79uIgCxoB6apC-61" target="A1dtZ5K79uIgCxoB6apC-65" edge="1">
          <mxGeometry relative="1" as="geometry" />
        </mxCell>
        <mxCell id="A1dtZ5K79uIgCxoB6apC-61" value="garbage truck" style="rounded=0;whiteSpace=wrap;html=1;" parent="1" vertex="1">
          <mxGeometry x="-270" y="430" width="120" height="60" as="geometry" />
        </mxCell>
        <mxCell id="A1dtZ5K79uIgCxoB6apC-65" value="discard" style="rhombus;whiteSpace=wrap;html=1;" parent="1" vertex="1">
          <mxGeometry x="-250" y="520" width="80" height="80" as="geometry" />
        </mxCell>
        <mxCell id="A1dtZ5K79uIgCxoB6apC-68" style="edgeStyle=orthogonalEdgeStyle;rounded=0;orthogonalLoop=1;jettySize=auto;html=1;exitX=0.5;exitY=1;exitDx=0;exitDy=0;entryX=0.5;entryY=0;entryDx=0;entryDy=0;" parent="1" source="A1dtZ5K79uIgCxoB6apC-67" target="A1dtZ5K79uIgCxoB6apC-58" edge="1">
          <mxGeometry relative="1" as="geometry" />
        </mxCell>
        <mxCell id="A1dtZ5K79uIgCxoB6apC-67" value="Frau&amp;nbsp;Ina&amp;nbsp;Shurance&amp;nbsp;" style="rounded=0;whiteSpace=wrap;html=1;" parent="1" vertex="1">
          <mxGeometry x="-270" y="20" width="120" height="60" as="geometry" />
        </mxCell>
        <mxCell id="A1dtZ5K79uIgCxoB6apC-69" value="remove glasses and then discard" style="rhombus;whiteSpace=wrap;html=1;" parent="1" vertex="1">
          <mxGeometry x="-120" y="670" width="80" height="80" as="geometry" />
        </mxCell>
        <mxCell id="A1dtZ5K79uIgCxoB6apC-129" style="edgeStyle=orthogonalEdgeStyle;rounded=0;orthogonalLoop=1;jettySize=auto;html=1;exitX=0.5;exitY=1;exitDx=0;exitDy=0;entryX=0.5;entryY=0;entryDx=0;entryDy=0;" parent="1" source="A1dtZ5K79uIgCxoB6apC-71" target="A1dtZ5K79uIgCxoB6apC-128" edge="1">
          <mxGeometry relative="1" as="geometry" />
        </mxCell>
        <mxCell id="A1dtZ5K79uIgCxoB6apC-71" value="stole my reading glasses" style="rounded=0;whiteSpace=wrap;html=1;" parent="1" vertex="1">
          <mxGeometry x="-80" y="540" width="120" height="60" as="geometry" />
        </mxCell>
        <mxCell id="A1dtZ5K79uIgCxoB6apC-72" value="reads my newspaper" style="rounded=0;whiteSpace=wrap;html=1;" parent="1" vertex="1">
          <mxGeometry x="-80" y="330" width="120" height="60" as="geometry" />
        </mxCell>
        <mxCell id="A1dtZ5K79uIgCxoB6apC-84" style="edgeStyle=orthogonalEdgeStyle;rounded=0;orthogonalLoop=1;jettySize=auto;html=1;exitX=0.5;exitY=1;exitDx=0;exitDy=0;entryX=0.5;entryY=0;entryDx=0;entryDy=0;" parent="1" source="A1dtZ5K79uIgCxoB6apC-73" target="A1dtZ5K79uIgCxoB6apC-83" edge="1">
          <mxGeometry relative="1" as="geometry" />
        </mxCell>
        <mxCell id="A1dtZ5K79uIgCxoB6apC-106" value="ok" style="edgeLabel;html=1;align=center;verticalAlign=middle;resizable=0;points=[];" parent="A1dtZ5K79uIgCxoB6apC-84" vertex="1" connectable="0">
          <mxGeometry x="-0.4364" y="-2" relative="1" as="geometry">
            <mxPoint as="offset" />
          </mxGeometry>
        </mxCell>
        <mxCell id="A1dtZ5K79uIgCxoB6apC-73" value="Somehow keeps geting stuck in washing machine&amp;nbsp;" style="rounded=0;whiteSpace=wrap;html=1;" parent="1" vertex="1">
          <mxGeometry x="-600" y="230" width="120" height="60" as="geometry" />
        </mxCell>
        <mxCell id="A1dtZ5K79uIgCxoB6apC-76" style="edgeStyle=orthogonalEdgeStyle;rounded=0;orthogonalLoop=1;jettySize=auto;html=1;exitX=0.5;exitY=1;exitDx=0;exitDy=0;entryX=0.5;entryY=0;entryDx=0;entryDy=0;" parent="1" source="A1dtZ5K79uIgCxoB6apC-74" target="A1dtZ5K79uIgCxoB6apC-87" edge="1">
          <mxGeometry relative="1" as="geometry">
            <mxPoint x="-380" y="140" as="targetPoint" />
          </mxGeometry>
        </mxCell>
        <mxCell id="A1dtZ5K79uIgCxoB6apC-74" value="Ernest goodman" style="rounded=0;whiteSpace=wrap;html=1;" parent="1" vertex="1">
          <mxGeometry x="-440" y="20" width="120" height="60" as="geometry" />
        </mxCell>
        <mxCell id="A1dtZ5K79uIgCxoB6apC-109" style="edgeStyle=orthogonalEdgeStyle;rounded=0;orthogonalLoop=1;jettySize=auto;html=1;exitX=0.5;exitY=1;exitDx=0;exitDy=0;entryX=0.5;entryY=0;entryDx=0;entryDy=0;" parent="1" source="A1dtZ5K79uIgCxoB6apC-75" target="A1dtZ5K79uIgCxoB6apC-108" edge="1">
          <mxGeometry relative="1" as="geometry" />
        </mxCell>
        <mxCell id="A1dtZ5K79uIgCxoB6apC-75" value="coverd in red &quot;paint&quot;" style="rounded=0;whiteSpace=wrap;html=1;" parent="1" vertex="1">
          <mxGeometry x="-440" y="230" width="120" height="60" as="geometry" />
        </mxCell>
        <mxCell id="A1dtZ5K79uIgCxoB6apC-86" style="edgeStyle=orthogonalEdgeStyle;rounded=0;orthogonalLoop=1;jettySize=auto;html=1;exitX=0.5;exitY=1;exitDx=0;exitDy=0;entryX=0.5;entryY=0;entryDx=0;entryDy=0;" parent="1" source="A1dtZ5K79uIgCxoB6apC-82" target="A1dtZ5K79uIgCxoB6apC-95" edge="1">
          <mxGeometry relative="1" as="geometry">
            <mxPoint x="-540" y="150" as="targetPoint" />
          </mxGeometry>
        </mxCell>
        <mxCell id="A1dtZ5K79uIgCxoB6apC-82" value="Dennis Dense" style="rounded=0;whiteSpace=wrap;html=1;" parent="1" vertex="1">
          <mxGeometry x="-600" y="20" width="120" height="60" as="geometry" />
        </mxCell>
        <mxCell id="A1dtZ5K79uIgCxoB6apC-83" value="works as intended by designer send back" style="rhombus;whiteSpace=wrap;html=1;" parent="1" vertex="1">
          <mxGeometry x="-580" y="330" width="80" height="80" as="geometry" />
        </mxCell>
        <mxCell id="A1dtZ5K79uIgCxoB6apC-88" style="edgeStyle=orthogonalEdgeStyle;rounded=0;orthogonalLoop=1;jettySize=auto;html=1;exitX=0.5;exitY=1;exitDx=0;exitDy=0;entryX=0.5;entryY=0;entryDx=0;entryDy=0;" parent="1" source="A1dtZ5K79uIgCxoB6apC-87" target="A1dtZ5K79uIgCxoB6apC-75" edge="1">
          <mxGeometry relative="1" as="geometry" />
        </mxCell>
        <mxCell id="A1dtZ5K79uIgCxoB6apC-87" value="Tony" style="rounded=0;whiteSpace=wrap;html=1;" parent="1" vertex="1">
          <mxGeometry x="-440" y="130" width="120" height="60" as="geometry" />
        </mxCell>
        <mxCell id="A1dtZ5K79uIgCxoB6apC-96" style="edgeStyle=orthogonalEdgeStyle;rounded=0;orthogonalLoop=1;jettySize=auto;html=1;exitX=0.5;exitY=1;exitDx=0;exitDy=0;entryX=0.5;entryY=0;entryDx=0;entryDy=0;" parent="1" source="A1dtZ5K79uIgCxoB6apC-95" target="A1dtZ5K79uIgCxoB6apC-73" edge="1">
          <mxGeometry relative="1" as="geometry" />
        </mxCell>
        <mxCell id="A1dtZ5K79uIgCxoB6apC-95" value="Lovely" style="rounded=0;whiteSpace=wrap;html=1;" parent="1" vertex="1">
          <mxGeometry x="-600" y="130" width="120" height="60" as="geometry" />
        </mxCell>
        <mxCell id="A1dtZ5K79uIgCxoB6apC-108" value="wash" style="rhombus;whiteSpace=wrap;html=1;" parent="1" vertex="1">
          <mxGeometry x="-420" y="320" width="80" height="80" as="geometry" />
        </mxCell>
        <mxCell id="A1dtZ5K79uIgCxoB6apC-124" value="discard" style="rhombus;whiteSpace=wrap;html=1;" parent="1" vertex="1">
          <mxGeometry x="360" y="820" width="80" height="80" as="geometry" />
        </mxCell>
        <mxCell id="A1dtZ5K79uIgCxoB6apC-128" value="discard" style="rhombus;whiteSpace=wrap;html=1;" parent="1" vertex="1">
          <mxGeometry x="-20" y="670" width="80" height="80" as="geometry" />
        </mxCell>
        <mxCell id="A1dtZ5K79uIgCxoB6apC-140" value="discard" style="rhombus;whiteSpace=wrap;html=1;" parent="1" vertex="1">
          <mxGeometry x="140" y="820" width="80" height="80" as="geometry" />
        </mxCell>
        <mxCell id="A1dtZ5K79uIgCxoB6apC-145" style="edgeStyle=orthogonalEdgeStyle;rounded=0;orthogonalLoop=1;jettySize=auto;html=1;exitX=0.5;exitY=1;exitDx=0;exitDy=0;" parent="1" source="A1dtZ5K79uIgCxoB6apC-143" target="A1dtZ5K79uIgCxoB6apC-144" edge="1">
          <mxGeometry relative="1" as="geometry" />
        </mxCell>
        <mxCell id="A1dtZ5K79uIgCxoB6apC-143" value="Cave Johnson" style="rounded=0;whiteSpace=wrap;html=1;" parent="1" vertex="1">
          <mxGeometry x="-780" y="20" width="120" height="60" as="geometry" />
        </mxCell>
        <mxCell id="A1dtZ5K79uIgCxoB6apC-147" style="edgeStyle=orthogonalEdgeStyle;rounded=0;orthogonalLoop=1;jettySize=auto;html=1;exitX=0.5;exitY=1;exitDx=0;exitDy=0;entryX=0.5;entryY=0;entryDx=0;entryDy=0;" parent="1" source="A1dtZ5K79uIgCxoB6apC-144" target="A1dtZ5K79uIgCxoB6apC-146" edge="1">
          <mxGeometry relative="1" as="geometry" />
        </mxCell>
        <mxCell id="A1dtZ5K79uIgCxoB6apC-144" value="Caroline" style="rounded=0;whiteSpace=wrap;html=1;" parent="1" vertex="1">
          <mxGeometry x="-780" y="130" width="120" height="60" as="geometry" />
        </mxCell>
        <mxCell id="A1dtZ5K79uIgCxoB6apC-149" style="edgeStyle=orthogonalEdgeStyle;rounded=0;orthogonalLoop=1;jettySize=auto;html=1;exitX=0.5;exitY=1;exitDx=0;exitDy=0;" parent="1" source="A1dtZ5K79uIgCxoB6apC-146" target="A1dtZ5K79uIgCxoB6apC-148" edge="1">
          <mxGeometry relative="1" as="geometry" />
        </mxCell>
        <mxCell id="A1dtZ5K79uIgCxoB6apC-146" value="Keeps dispensing neurotoxin" style="rounded=0;whiteSpace=wrap;html=1;" parent="1" vertex="1">
          <mxGeometry x="-780" y="240" width="120" height="60" as="geometry" />
        </mxCell>
        <mxCell id="A1dtZ5K79uIgCxoB6apC-148" value="discard" style="rhombus;whiteSpace=wrap;html=1;" parent="1" vertex="1">
          <mxGeometry x="-760" y="330" width="80" height="80" as="geometry" />
        </mxCell>
        <mxCell id="A1dtZ5K79uIgCxoB6apC-151" style="edgeStyle=orthogonalEdgeStyle;rounded=0;orthogonalLoop=1;jettySize=auto;html=1;exitX=0.5;exitY=1;exitDx=0;exitDy=0;entryX=0.5;entryY=0;entryDx=0;entryDy=0;" parent="1" source="A1dtZ5K79uIgCxoB6apC-150" target="A1dtZ5K79uIgCxoB6apC-13" edge="1">
          <mxGeometry relative="1" as="geometry" />
        </mxCell>
        <mxCell id="A1dtZ5K79uIgCxoB6apC-150" value="Apofis" style="rounded=0;whiteSpace=wrap;html=1;" parent="1" vertex="1">
          <mxGeometry x="340" y="130" width="120" height="60" as="geometry" />
        </mxCell>
      </root>
    </mxGraphModel>
  </diagram>
</mxfile>
